<svg width="113" height="21" viewBox="0 0 113 21" fill="none" xmlns="http://www.w3.org/2000/svg">
<g clip-path="url(#clip0_79_94)">
<path d="M65.4609 15.4879H67.951V6.28141H65.4609V15.4879ZM65.4609 4.84572H67.951V2.65625H65.4609V4.84572Z" fill="black"/>
<path d="M69.5586 18.5001H72.0487V14.4442H72.085C72.6158 15.2339 73.4766 15.7543 74.7945 15.7543C77.2114 15.7543 78.8593 13.87 78.8593 10.8909C78.8593 8.01939 77.2664 6.02734 74.7763 6.02734C73.4947 6.02734 72.6158 6.61961 72.0118 7.42717H71.9568V6.27859H69.5586V18.5001ZM74.2637 13.7264C72.7808 13.7264 71.9936 12.6317 71.9936 10.9626C71.9936 9.31155 72.6158 8.00149 74.1724 8.00149C75.7103 8.00149 76.3324 9.22183 76.3324 10.9626C76.3324 12.7034 75.5271 13.7264 74.2637 13.7264Z" fill="black"/>
<path d="M83.8274 15.7543C86.1711 15.7543 87.7822 14.6417 87.7822 12.7931C87.7822 10.6396 86.0429 10.2089 84.4682 9.88586C83.1316 9.61666 81.8868 9.54484 81.8868 8.75524C81.8868 8.09121 82.5276 7.73228 83.4979 7.73228C84.56 7.73228 85.2008 8.09121 85.3103 9.07825H87.5622C87.3795 7.22978 86.0061 6.02734 83.5347 6.02734C81.3923 6.02734 79.7081 6.97853 79.7081 8.97058C79.7081 10.9806 81.356 11.4292 83.0402 11.7523C84.3218 12.0035 85.5116 12.0933 85.5116 12.9726C85.5116 13.6187 84.8895 14.0315 83.7911 14.0315C82.6739 14.0315 81.905 13.5648 81.7405 12.506H79.4336C79.5799 14.4622 81.0997 15.7543 83.8274 15.7543Z" fill="black"/>
<path d="M97.2356 15.4878V6.28125H94.7456V11.5934C94.7456 12.8137 94.0316 13.6752 92.86 13.6752C91.7979 13.6752 91.3039 13.083 91.3039 12.0062V6.28125H88.832V12.4189C88.832 14.4289 90.0036 15.739 92.091 15.739C93.4095 15.739 94.1416 15.2545 94.7824 14.411H94.8374V15.4878H97.2356Z" fill="black"/>
<path d="M98.8438 15.4851H101.334V10.1371C101.334 8.91672 102.011 8.12711 103.019 8.12711C103.934 8.12711 104.465 8.66547 104.465 9.70638V15.4851H106.955V10.1371C106.955 8.91672 107.596 8.12711 108.639 8.12711C109.555 8.12711 110.086 8.66547 110.086 9.70638V15.4851H112.576V9.29359C112.576 7.28359 111.458 6.02734 109.481 6.02734C108.291 6.02734 107.302 6.63751 106.662 7.64251H106.625C106.168 6.67342 105.215 6.02734 104.025 6.02734C102.725 6.02734 101.81 6.67342 101.297 7.51689H101.242V6.27859H98.8438V15.4851Z" fill="black"/>
<path d="M0.566406 15.4879H3.05638V2.65625H0.566406V15.4879Z" fill="black"/>
<path d="M9.14503 15.7543C12.0561 15.7543 14.0517 13.6367 14.0517 10.8909C14.0517 8.14501 12.0561 6.02734 9.14503 6.02734C6.23391 6.02734 4.23828 8.14501 4.23828 10.8909C4.23828 13.6367 6.23391 15.7543 9.14503 15.7543ZM9.14503 13.8879C7.6071 13.8879 6.76487 12.6855 6.76487 10.8909C6.76487 9.09621 7.6071 7.87586 9.14503 7.87586C10.6646 7.87586 11.5251 9.09621 11.5251 10.8909C11.5251 12.6855 10.6646 13.8879 9.14503 13.8879Z" fill="black"/>
<path d="M19.3455 18.6257C20.7369 18.6257 21.9453 18.3027 22.7325 17.5848C23.4283 16.9567 23.8494 16.0773 23.8494 14.7852V6.27859H21.451V7.24774H21.4143C20.8468 6.47603 19.9863 6.02734 18.8145 6.02734C16.4344 6.02734 14.75 7.78609 14.75 10.5319C14.75 13.3136 16.8006 14.9288 18.8878 14.9288C20.0778 14.9288 20.7919 14.4622 21.3411 13.852H21.396V14.857C21.396 16.1132 20.7186 16.7773 19.3088 16.7773C18.1554 16.7773 17.6244 16.3286 17.4231 15.7543H14.9514C15.2077 17.549 16.7823 18.6257 19.3455 18.6257ZM19.3088 12.9726C18.0272 12.9726 17.1851 12.0573 17.1851 10.496C17.1851 8.95263 18.0272 7.98353 19.2905 7.98353C20.7919 7.98353 21.5242 9.13211 21.5242 10.4781C21.5242 11.842 20.8834 12.9726 19.3088 12.9726Z" fill="black"/>
<path d="M29.9028 15.7543C32.8139 15.7543 34.8096 13.6367 34.8096 10.8909C34.8096 8.14501 32.8139 6.02734 29.9028 6.02734C26.9918 6.02734 24.9961 8.14501 24.9961 10.8909C24.9961 13.6367 26.9918 15.7543 29.9028 15.7543ZM29.9028 13.8879C28.3649 13.8879 27.5227 12.6855 27.5227 10.8909C27.5227 9.09621 28.3649 7.87586 29.9028 7.87586C31.4224 7.87586 32.283 9.09621 32.283 10.8909C32.283 12.6855 31.4224 13.8879 29.9028 13.8879Z" fill="black"/>
<path fill-rule="evenodd" clip-rule="evenodd" d="M49.9105 0.03125C55.8087 0.03125 60.5907 4.71827 60.5907 10.5C60.5907 16.2817 55.8087 20.9688 49.9105 20.9688C44.0121 20.9688 39.2305 16.2817 39.2305 10.5C39.2305 4.71827 44.0121 0.03125 49.9105 0.03125ZM49.5245 0.814621C48.3061 0.982697 47.1459 1.94236 46.2453 3.54739C45.984 4.01295 45.7483 4.5273 45.543 5.08265C46.7675 4.78101 48.1127 4.60317 49.5245 4.57567V0.814621ZM44.6403 5.33409C44.8958 4.5483 45.2082 3.82533 45.5688 3.18268C46.0152 2.38703 46.5451 1.69994 47.142 1.17222C43.8959 2.09633 41.3372 4.60441 40.3944 7.78634C40.9328 7.20119 41.6337 6.68184 42.4455 6.24424C43.1011 5.89077 43.8386 5.58445 44.6403 5.33409ZM44.3838 6.21886C44.0761 7.4192 43.8947 8.7378 43.8666 10.1216H40.0296C40.2011 8.92728 41.1801 7.79006 42.8176 6.90733C43.2925 6.65127 43.8172 6.42022 44.3838 6.21886ZM44.6388 10.1216C44.6707 8.61144 44.8925 7.19365 45.2595 5.94096C46.5374 5.58126 47.9838 5.36382 49.5245 5.33257V6.96722C48.9497 8.4095 47.7775 9.55844 46.3061 10.1216H44.6388ZM43.8666 10.8784H40.0296C40.2011 12.0727 41.1801 13.2099 42.8176 14.0927C43.2925 14.3487 43.8172 14.5798 44.3838 14.7811C44.0761 13.5808 43.8947 12.2622 43.8666 10.8784ZM45.2595 15.059C44.8925 13.8063 44.6707 12.3886 44.6388 10.8784H46.3061C47.7775 11.4416 48.9497 12.5905 49.5245 14.0328V15.6674C47.9838 15.6362 46.5374 15.4187 45.2595 15.059ZM44.6403 15.6659C43.8386 15.4155 43.1011 15.1092 42.4455 14.7558C41.6337 14.3182 40.9328 13.7988 40.3944 13.2137C41.3372 16.3956 43.8959 18.9037 47.142 19.8278C46.5451 19.3 46.0152 18.613 45.5688 17.8173C45.2082 17.1747 44.8958 16.4517 44.6403 15.6659ZM49.5245 20.1854C48.3061 20.0173 47.1459 19.0576 46.2453 17.4526C45.984 16.9871 45.7483 16.4727 45.543 15.9174C46.7675 16.219 48.1127 16.3968 49.5245 16.4243V20.1854ZM52.6789 19.8278C53.2759 19.3 53.8057 18.613 54.2521 17.8173C54.6126 17.1747 54.9255 16.4517 55.1807 15.6659C55.9823 15.4155 56.7197 15.1092 57.3755 14.7558C58.1872 14.3182 58.8883 13.7988 59.4266 13.2137C58.4835 16.3956 55.9251 18.9037 52.6789 19.8278ZM54.2783 15.9174C54.0727 16.4727 53.8367 16.9871 53.5755 17.4526C52.6751 19.0576 51.5149 20.0173 50.2965 20.1854V16.4243C51.7082 16.3968 53.0534 16.219 54.2783 15.9174ZM55.4371 14.7811C56.0036 14.5798 56.5286 14.3487 57.0033 14.0927C58.6411 13.2099 59.6199 12.0727 59.7913 10.8784H55.9545C55.9262 12.2622 55.7447 13.5808 55.4371 14.7811ZM55.1823 10.8784C55.1503 12.3886 54.9287 13.8063 54.5613 15.059C53.2835 15.4187 51.8371 15.6362 50.2965 15.6674V14.034C50.8711 12.5912 52.0436 11.4417 53.5154 10.8784H55.1823ZM55.9545 10.1216H59.7913C59.6199 8.92728 58.6411 7.79006 57.0033 6.90733C56.5286 6.65127 56.0036 6.42022 55.4371 6.21886C55.7447 7.4192 55.9262 8.7378 55.9545 10.1216ZM54.5613 5.94096C54.9287 7.19365 55.1503 8.61144 55.1823 10.1216H53.5155C52.0436 9.55828 50.8711 8.40881 50.2965 6.96601V5.33257C51.8371 5.36382 53.2835 5.58126 54.5613 5.94096ZM55.1807 5.33409C55.9823 5.58445 56.7197 5.89077 57.3755 6.24424C58.1872 6.68184 58.8883 7.20119 59.4266 7.78634C58.4835 4.60441 55.9251 2.09633 52.6789 1.17222C53.2759 1.69994 53.8057 2.38703 54.2521 3.18268C54.6126 3.82533 54.9255 4.5483 55.1807 5.33409ZM50.2965 0.814621C51.5149 0.982697 52.6751 1.94236 53.5755 3.54739C53.8367 4.01296 54.0727 4.5273 54.2783 5.08265C53.0534 4.78101 51.7082 4.60317 50.2965 4.57567V0.814621Z" fill="black"/>
</g>
<defs>
<clipPath id="clip0_79_94">
<rect width="113" height="21" fill="white"/>
</clipPath>
</defs>
</svg>
