<svg width="39" height="40" viewBox="0 0 39 40" fill="none" xmlns="http://www.w3.org/2000/svg">
<g clip-path="url(#clip0_79_186)">
<path d="M39.0001 20.086C39.0001 20.5132 38.8304 20.9229 38.5283 21.225C38.2263 21.527 37.8166 21.6967 37.3894 21.6967H21.2827V37.8035C21.2827 38.2307 21.113 38.6403 20.8109 38.9424C20.5088 39.2445 20.0992 39.4142 19.672 39.4142C19.2448 39.4142 18.8351 39.2445 18.5331 38.9424C18.231 38.6403 18.0613 38.2307 18.0613 37.8035V21.6967H1.95448C1.5273 21.6967 1.11762 21.527 0.815561 21.225C0.5135 20.9229 0.343804 20.5132 0.343804 20.086C0.343804 19.6589 0.5135 19.2492 0.815561 18.9471C1.11762 18.6451 1.5273 18.4754 1.95448 18.4754H18.0613V2.36855C18.0613 1.94137 18.231 1.53169 18.5331 1.22963C18.8351 0.927565 19.2448 0.757868 19.672 0.757868C20.0992 0.757868 20.5088 0.927565 20.8109 1.22963C21.113 1.53169 21.2827 1.94137 21.2827 2.36855V18.4754H37.3894C37.8166 18.4754 38.2263 18.6451 38.5283 18.9471C38.8304 19.2492 39.0001 19.6589 39.0001 20.086Z" fill="black"/>
</g>
<defs>
<clipPath id="clip0_79_186">
<rect width="38.08" height="39.0564" fill="white" transform="scale(1.02416)"/>
</clipPath>
</defs>
</svg>
