<svg width="104" height="26" viewBox="0 0 104 26" fill="none" xmlns="http://www.w3.org/2000/svg">
<g clip-path="url(#clip0_79_404)">
<path d="M3.34062 20.091H0.587524L6.7736 2.90088H9.77012L15.9562 20.091H13.2031L8.34321 6.02329H8.20891L3.34062 20.091ZM3.80227 13.3593H12.733V15.5417H3.80227V13.3593ZM22.253 25.1943C21.2291 25.1943 20.3477 25.0599 19.6091 24.7914C18.8761 24.5228 18.2773 24.1674 17.8128 23.7254C17.3485 23.2833 17.0015 22.7993 16.7721 22.2733L18.9292 21.3836C19.0803 21.6298 19.2817 21.89 19.5335 22.1642C19.7909 22.444 20.1379 22.6817 20.5744 22.8777C21.0164 23.0735 21.5843 23.1714 22.2783 23.1714C23.2296 23.1714 24.0157 22.9391 24.6369 22.4747C25.258 22.0159 25.5685 21.2828 25.5685 20.2756V17.7408H25.4091C25.258 18.015 25.0397 18.3199 24.7543 18.6556C24.4746 18.9914 24.0885 19.2824 23.596 19.5285C23.1036 19.7748 22.4629 19.8978 21.6739 19.8978C20.6554 19.8978 19.7378 19.6601 18.9208 19.1845C18.1094 18.7033 17.4659 17.9954 16.9903 17.0609C16.5203 16.1208 16.2852 14.9653 16.2852 13.5943C16.2852 12.2234 16.5174 11.0483 16.9819 10.069C17.4519 9.08975 18.0955 8.33993 18.9124 7.81952C19.7294 7.29352 20.6554 7.03052 21.6907 7.03052C22.4909 7.03052 23.1373 7.16482 23.6296 7.43341C24.1221 7.69641 24.5053 8.00418 24.7795 8.35671C25.0594 8.70924 25.2748 9.0198 25.4258 9.2884H25.6106V7.19839H28.0698V20.3764C28.0698 21.4843 27.8124 22.3936 27.2976 23.1042C26.7828 23.8149 26.0861 24.3409 25.2076 24.6822C24.3347 25.0236 23.3499 25.1943 22.253 25.1943ZM22.2278 17.8163C22.9497 17.8163 23.5596 17.6484 24.0577 17.3126C24.5613 16.9713 24.9418 16.4845 25.1992 15.8522C25.4622 15.2143 25.5937 14.4505 25.5937 13.5607C25.5937 12.6934 25.465 11.9296 25.2076 11.2693C24.9502 10.609 24.5725 10.0942 24.0744 9.72486C23.5764 9.34995 22.9609 9.16249 22.2278 9.16249C21.4724 9.16249 20.843 9.35835 20.3393 9.75005C19.8357 10.1361 19.4552 10.6622 19.1978 11.328C18.9461 11.994 18.8201 12.7382 18.8201 13.5607C18.8201 14.4057 18.9488 15.1472 19.2062 15.785C19.4636 16.4229 19.8441 16.921 20.3477 17.2791C20.8569 17.6373 21.4837 17.8163 22.2278 17.8163ZM35.8104 20.3512C34.5401 20.3512 33.4463 20.0797 32.5285 19.5369C31.6164 18.9886 30.9114 18.2192 30.4134 17.2287C29.9209 16.2327 29.6747 15.066 29.6747 13.7286C29.6747 12.4081 29.9209 11.2441 30.4134 10.2369C30.9114 9.22965 31.6052 8.44344 32.4949 7.87827C33.3902 7.3131 34.4366 7.03052 35.6342 7.03052C36.3616 7.03052 37.0666 7.15083 37.7494 7.39145C38.432 7.63206 39.0448 8.00977 39.5876 8.52458C40.1303 9.03938 40.5584 9.70808 40.8717 10.5306C41.1852 11.3476 41.3417 12.3408 41.3417 13.5104V14.4001H31.0933V12.52H38.8825C38.8825 11.8596 38.7481 11.2749 38.4796 10.7657C38.211 10.2509 37.8333 9.84517 37.3465 9.54861C36.8653 9.25203 36.3 9.10373 35.6509 9.10373C34.9459 9.10373 34.3304 9.27721 33.8043 9.62415C33.284 9.96548 32.881 10.4131 32.5957 10.9671C32.3158 11.5155 32.176 12.1114 32.176 12.7549V14.2238C32.176 15.0856 32.3271 15.8186 32.6293 16.4229C32.937 17.0273 33.3651 17.4889 33.9134 17.8079C34.4618 18.1212 35.1026 18.2779 35.8355 18.2779C36.3112 18.2779 36.7449 18.2108 37.1366 18.0765C37.5283 17.9366 37.8668 17.7296 38.1523 17.4554C38.4375 17.1812 38.6558 16.8426 38.8069 16.4397L41.1823 16.8678C40.992 17.5673 40.6507 18.18 40.1583 18.706C39.6715 19.2265 39.0587 19.6321 38.3201 19.9231C37.5871 20.2084 36.7505 20.3512 35.8104 20.3512ZM45.4542 12.436V20.091H42.9445V7.19839H45.3535V9.2968H45.513C45.8096 8.61412 46.2739 8.06573 46.9063 7.65165C47.5443 7.23756 48.3472 7.03052 49.3152 7.03052C50.1938 7.03052 50.9633 7.21518 51.6236 7.5845C52.2838 7.94822 52.7958 8.49101 53.1596 9.21285C53.5232 9.93471 53.7051 10.8272 53.7051 11.8904V20.091H51.1954V12.1926C51.1954 11.2581 50.9521 10.5278 50.4651 10.0019C49.9784 9.47026 49.3097 9.20446 48.4591 9.20446C47.8772 9.20446 47.3596 9.33037 46.9063 9.58217C46.4587 9.83398 46.1033 10.2033 45.8403 10.6901C45.5829 11.1714 45.4542 11.7533 45.4542 12.436ZM61.3198 20.3512C60.0719 20.3512 58.9975 20.0686 58.0966 19.5034C57.2014 18.9327 56.5131 18.1464 56.0319 17.1448C55.5506 16.1432 55.31 14.996 55.31 13.7035C55.31 12.394 55.5562 11.2385 56.0486 10.2369C56.541 9.22965 57.235 8.44344 58.1302 7.87827C59.0255 7.3131 60.0803 7.03052 61.2946 7.03052C62.2739 7.03052 63.1468 7.21239 63.9134 7.5761C64.6801 7.93423 65.2984 8.43785 65.7684 9.08695C66.2441 9.73605 66.5266 10.4943 66.6161 11.3616H64.1736C64.0393 10.7573 63.7315 10.2369 63.2503 9.8004C62.7747 9.36395 62.1368 9.14571 61.3366 9.14571C60.6372 9.14571 60.0244 9.33037 59.4984 9.69969C58.978 10.0634 58.5723 10.5838 58.2813 11.2609C57.9904 11.9324 57.8449 12.7269 57.8449 13.6447C57.8449 14.5847 57.9875 15.3962 58.2729 16.0788C58.5584 16.7615 58.9612 17.2903 59.4816 17.6652C60.0076 18.0401 60.6259 18.2276 61.3366 18.2276C61.8123 18.2276 62.2431 18.1408 62.6292 17.9673C63.0209 17.7883 63.3483 17.5337 63.6112 17.2035C63.8798 16.8735 64.0673 16.4761 64.1736 16.0117H66.6161C66.5266 16.8454 66.2552 17.5896 65.802 18.2444C65.3487 18.8991 64.7416 19.4139 63.9805 19.7888C63.2251 20.1638 62.3383 20.3512 61.3198 20.3512ZM69.7046 24.9257C69.3297 24.9257 68.9884 24.8949 68.6805 24.8334C68.3728 24.7773 68.1434 24.7159 67.9923 24.6486L68.5966 22.5923C69.0555 22.7153 69.4639 22.7685 69.8221 22.7517C70.1802 22.7349 70.4964 22.6007 70.7706 22.3488C71.0504 22.097 71.2966 21.6857 71.5092 21.115L71.8198 20.2588L67.1025 7.19839H69.7885L73.0536 17.2035H73.188L76.4531 7.19839H79.1474L73.8342 21.8117C73.588 22.4831 73.2747 23.0511 72.8942 23.5155C72.5136 23.9856 72.0604 24.3382 71.5344 24.5731C71.0083 24.8082 70.3984 24.9257 69.7046 24.9257ZM85.4421 20.3512C84.1719 20.3512 83.078 20.0797 82.1602 19.5369C81.2482 18.9886 80.5431 18.2192 80.0451 17.2287C79.5526 16.2327 79.3065 15.066 79.3065 13.7286C79.3065 12.4081 79.5526 11.2441 80.0451 10.2369C80.5431 9.22965 81.237 8.44344 82.1266 7.87827C83.022 7.3131 84.0684 7.03052 85.2659 7.03052C85.9933 7.03052 86.6984 7.15083 87.3811 7.39145C88.0637 7.63206 88.6765 8.00977 89.2193 8.52458C89.762 9.03938 90.1901 9.70808 90.5035 10.5306C90.8169 11.3476 90.9735 12.3408 90.9735 13.5104V14.4001H80.725V12.52H88.5142C88.5142 11.8596 88.3799 11.2749 88.1114 10.7657C87.8427 10.2509 87.465 9.84517 86.9781 9.54861C86.4969 9.25203 85.9317 9.10373 85.2827 9.10373C84.5776 9.10373 83.9621 9.27721 83.4361 9.62415C82.9156 9.96548 82.5127 10.4131 82.2274 10.9671C81.9476 11.5155 81.8077 12.1114 81.8077 12.7549V14.2238C81.8077 15.0856 81.9588 15.8186 82.261 16.4229C82.5688 17.0273 82.9968 17.4889 83.5452 17.8079C84.0935 18.1212 84.7343 18.2779 85.4673 18.2779C85.943 18.2779 86.3767 18.2108 86.7683 18.0765C87.16 17.9366 87.4986 17.7296 87.784 17.4554C88.0693 17.1812 88.2876 16.8426 88.4386 16.4397L90.8141 16.8678C90.6238 17.5673 90.2825 18.18 89.79 18.706C89.3032 19.2265 88.6905 19.6321 87.9518 19.9231C87.2187 20.2084 86.3822 20.3512 85.4421 20.3512Z" fill="white"/>
<path d="M96.8005 10.0751V5.16911H99.2535C99.4928 5.16911 99.7321 5.22893 99.9714 5.34861C100.215 5.46383 100.417 5.6411 100.576 5.88041C100.74 6.1153 100.822 6.4078 100.822 6.75791C100.822 7.11246 100.738 7.41383 100.57 7.66201C100.401 7.91018 100.191 8.09854 99.9382 8.22707C99.6857 8.35559 99.433 8.41984 99.1804 8.41984H97.4387V7.57559H98.8746C99.0341 7.57559 99.1915 7.50689 99.3466 7.36951C99.5061 7.23213 99.5859 7.02825 99.5859 6.75791C99.5859 6.47429 99.5061 6.27929 99.3466 6.17291C99.1915 6.06655 99.0409 6.01337 98.8946 6.01337H97.9439V10.0751H96.8005ZM99.8186 7.77502L101.008 10.0751H99.7521L98.6087 7.77502H99.8186ZM98.6818 13.0001C97.9461 13.0001 97.257 12.8627 96.6144 12.5879C95.9718 12.3131 95.4067 11.932 94.9193 11.4446C94.4317 10.9571 94.0505 10.392 93.7757 9.74939C93.501 9.10677 93.3636 8.41763 93.3636 7.68195C93.3636 6.94627 93.501 6.25712 93.7757 5.6145C94.0505 4.9719 94.4317 4.40684 94.9193 3.91934C95.4067 3.43184 95.9718 3.0507 96.6144 2.77593C97.257 2.50116 97.9461 2.36377 98.6818 2.36377C99.4175 2.36377 100.107 2.50116 100.749 2.77593C101.392 3.0507 101.957 3.43184 102.444 3.91934C102.932 4.40684 103.313 4.9719 103.588 5.6145C103.863 6.25712 104 6.94627 104 7.68195C104 8.41763 103.863 9.10677 103.588 9.74939C103.313 10.392 102.932 10.9571 102.444 11.4446C101.957 11.932 101.392 12.3131 100.749 12.5879C100.107 12.8627 99.4175 13.0001 98.6818 13.0001ZM98.6818 11.6839C99.4175 11.6839 100.087 11.5044 100.689 11.1454C101.297 10.782 101.78 10.2989 102.139 9.69621C102.498 9.08905 102.677 8.41763 102.677 7.68195C102.677 6.94627 102.498 6.27707 102.139 5.67434C101.78 5.06718 101.297 4.58411 100.689 4.22513C100.087 3.86172 99.4175 3.68002 98.6818 3.68002C97.9461 3.68002 97.2748 3.86172 96.6675 4.22513C96.0604 4.58411 95.5773 5.06718 95.2184 5.67434C94.8594 6.27707 94.6798 6.94627 94.6798 7.68195C94.6798 8.41763 94.8594 9.08905 95.2184 9.69621C95.5773 10.2989 96.0604 10.782 96.6675 11.1454C97.2748 11.5044 97.9461 11.6839 98.6818 11.6839Z" fill="white"/>
</g>
<defs>
<clipPath id="clip0_79_404">
<rect width="104" height="26" fill="white"/>
</clipPath>
</defs>
</svg>
