<svg width="20" height="17" viewBox="0 0 20 17" fill="none" xmlns="http://www.w3.org/2000/svg">
<g clip-path="url(#clip0_79_295)">
<path d="M12.1357 0.595311L19.5729 8.03255C19.6867 8.14632 19.7506 8.3007 19.7506 8.46163C19.7506 8.62255 19.6867 8.77694 19.5729 8.89071L12.1357 16.328C12.0218 16.4417 11.8675 16.5056 11.7066 16.5056C11.5457 16.5056 11.3913 16.4417 11.2775 16.328C11.1638 16.2142 11.0998 16.0598 11.0998 15.8989C11.0998 15.738 11.1638 15.5836 11.2775 15.4698L17.6793 9.06801H0.836785C0.679653 9.06248 0.530812 8.99617 0.421614 8.88309C0.312417 8.76994 0.251389 8.61886 0.251389 8.46163C0.251389 8.3044 0.312417 8.15332 0.421614 8.04017C0.530812 7.92709 0.679653 7.86078 0.836785 7.85524H17.6793L11.2775 1.45346C11.1638 1.33966 11.0998 1.18532 11.0998 1.02439C11.0998 0.863447 11.1638 0.709108 11.2775 0.595311C11.3913 0.481513 11.5457 0.417583 11.7066 0.417583C11.8675 0.417583 12.0218 0.481513 12.1357 0.595311Z" fill="black"/>
</g>
<defs>
<clipPath id="clip0_79_295">
<rect width="19.2" height="16.2462" fill="white" transform="scale(1.04167)"/>
</clipPath>
</defs>
</svg>
