<svg width="20" height="17" viewBox="0 0 20 17" fill="none" xmlns="http://www.w3.org/2000/svg">
<g clip-path="url(#clip0_79_290)">
<path d="M7.86431 16.3277L0.42706 8.89051C0.313291 8.77674 0.249369 8.62235 0.249369 8.46143C0.249369 8.30051 0.313291 8.14612 0.42706 8.03235L7.86431 0.595101C7.97816 0.481332 8.13246 0.417409 8.29339 0.417409C8.45431 0.417409 8.6087 0.481332 8.72247 0.595101C8.83624 0.708871 8.90024 0.863256 8.90024 1.02418C8.90024 1.1851 8.83624 1.33949 8.72247 1.45326L2.32068 7.85504H19.1632C19.3203 7.86058 19.4692 7.92689 19.5784 8.03997C19.6876 8.15312 19.7486 8.3042 19.7486 8.46143C19.7486 8.61866 19.6876 8.76974 19.5784 8.88289C19.4692 8.99597 19.3203 9.06228 19.1632 9.06782H2.32068L8.72247 15.4696C8.83624 15.5834 8.90024 15.7377 8.90024 15.8987C8.90024 16.0596 8.83624 16.2139 8.72247 16.3277C8.6087 16.4415 8.45431 16.5055 8.29339 16.5055C8.13246 16.5055 7.97816 16.4415 7.86431 16.3277Z" fill="black"/>
</g>
<defs>
<clipPath id="clip0_79_290">
<rect width="19.2" height="16.2462" fill="white" transform="matrix(-1.04167 0 0 -1.04167 20 16.9231)"/>
</clipPath>
</defs>
</svg>
