<svg width="71" height="77" viewBox="0 0 71 77" fill="none" xmlns="http://www.w3.org/2000/svg">
<g clip-path="url(#clip0_79_308)">
<path d="M70.1276 30.587C70.1276 29.1472 68.8702 27.829 66.5989 26.8758L56.7632 22.759L66.5989 18.6422C68.8702 17.6891 70.1276 16.3709 70.1276 14.931C70.1276 13.4911 68.8702 12.173 66.5989 11.2198L43.0338 1.3841C38.633 -0.461367 31.4743 -0.461367 27.0735 1.3841L3.52869 11.2198C1.25735 12.173 0 13.4911 0 14.931C0 16.3709 1.25735 17.6891 3.52869 18.6422L13.3644 22.759L3.52869 26.8758C1.25735 27.829 0 29.1472 0 30.587C0 32.0269 1.25735 33.3451 3.52869 34.2982L13.3644 38.415L3.52869 42.5318C1.25735 43.485 0 44.8032 0 46.243C0 47.6829 1.25735 49.0011 3.52869 49.9542L13.3644 54.071L3.52869 58.1878C1.25735 59.141 0 60.4592 0 61.899C0 63.3389 1.25735 64.6571 3.52869 65.6102L27.0735 75.446C29.2638 76.3585 32.1638 76.825 35.0435 76.825C37.9232 76.825 40.8233 76.3585 43.0135 75.446L66.5583 65.6102C68.8297 64.6571 70.087 63.3389 70.087 61.899C70.087 60.4592 68.8297 59.141 66.5583 58.1878L56.7226 54.071L66.5583 49.9542C68.8297 49.0011 70.087 47.6829 70.087 46.243C70.087 44.8032 68.8297 43.485 66.5583 42.5318L56.7429 38.415L66.5786 34.2982C68.8702 33.3451 70.1276 32.0269 70.1276 30.587ZM3.914 17.7093C2.06854 16.9387 0.993711 15.9247 0.993711 14.931C0.993711 13.9373 2.04826 12.9233 3.914 12.1527L27.4791 2.31697C29.568 1.44494 32.326 0.99878 35.0638 0.99878C37.8218 0.99878 40.5596 1.44494 42.6484 2.31697L66.1933 12.1527C68.0388 12.9233 69.1136 13.9373 69.1136 14.931C69.1136 15.9247 68.059 16.9387 66.1933 17.7093L55.4247 22.2115L43.0338 17.0401C38.633 15.1946 31.4743 15.1946 27.0735 17.0401L14.6826 22.2115L3.914 17.7093ZM54.1268 22.759L42.6484 27.545C38.4708 29.2891 31.6568 29.2891 27.4791 27.545L16.0008 22.759L27.4791 17.973C29.568 17.1009 32.326 16.6548 35.0638 16.6548C37.8218 16.6548 40.5596 17.1009 42.6484 17.973L54.1268 22.759ZM66.2136 59.1207C68.059 59.8913 69.1339 60.9053 69.1339 61.899C69.1339 62.8928 68.0793 63.9067 66.2136 64.6774L42.6484 74.5131C38.4708 76.2571 31.6568 76.2571 27.4791 74.5131L3.914 64.6774C2.06854 63.9067 0.993711 62.8928 0.993711 61.899C0.993711 60.9053 2.04826 59.8913 3.914 59.1207L14.6826 54.6186L27.0735 59.7899C29.2638 60.7025 32.1638 61.169 35.0435 61.169C37.9232 61.169 40.8233 60.7025 43.0135 59.7899L55.4044 54.6186L66.2136 59.1207ZM16.0008 54.071L27.4791 49.285C29.568 48.413 32.326 47.9668 35.0638 47.9668C37.8218 47.9668 40.5596 48.413 42.6484 49.285L54.1268 54.071L42.6484 58.8571C38.4708 60.6011 31.6568 60.6011 27.4791 58.8571L16.0008 54.071ZM66.2136 43.4647C68.059 44.2353 69.1339 45.2493 69.1339 46.243C69.1339 47.2367 68.0793 48.2507 66.2136 49.0214L55.445 53.5235L43.0338 48.3521C38.633 46.5067 31.4743 46.5067 27.0735 48.3521L14.6826 53.5235L3.914 49.0214C2.06854 48.2507 0.993711 47.2367 0.993711 46.243C0.993711 45.2493 2.04826 44.2353 3.914 43.4647L14.6826 38.9626L27.0735 44.1339C29.2638 45.0465 32.1638 45.513 35.0435 45.513C37.9232 45.513 40.8233 45.0465 43.0135 44.1339L55.4044 38.9626L66.2136 43.4647ZM16.0008 38.415L27.4791 33.629C29.568 32.757 32.326 32.3108 35.0638 32.3108C37.8218 32.3108 40.5596 32.757 42.6484 33.629L54.1268 38.415L42.6484 43.2011C38.4708 44.9451 31.6568 44.9451 27.4791 43.2011L16.0008 38.415ZM55.445 37.8675L43.054 32.6961C38.6533 30.8507 31.4945 30.8507 27.0938 32.6961L14.7029 37.8675L3.93428 33.3654C2.08882 32.5947 1.01399 31.5807 1.01399 30.587C1.01399 29.5933 2.06854 28.5793 3.93428 27.8087L14.7029 23.3066L27.0938 28.4779C29.284 29.3905 32.1841 29.8569 35.0638 29.8569C37.9435 29.8569 40.8435 29.3905 43.0338 28.4779L55.4247 23.3066L66.1933 27.8087C68.0388 28.5793 69.1136 29.5933 69.1136 30.587C69.1136 31.5807 68.059 32.5947 66.1933 33.3654L55.445 37.8675Z" fill="black"/>
</g>
<defs>
<clipPath id="clip0_79_308">
<rect width="71" height="77" fill="white"/>
</clipPath>
</defs>
</svg>
