<svg width="75" height="75" viewBox="0 0 75 75" fill="none" xmlns="http://www.w3.org/2000/svg">
<g clip-path="url(#clip0_79_336)">
<path d="M74.2 36.7145C74.2 36.586 74.2 36.4575 74.2 36.329C74.2 33.4286 73.7962 30.6015 73.0435 27.9397C68.9498 11.8955 54.3742 0 37.1 0C16.65 0 0 16.65 0 37.1C0 57.55 16.6317 74.2 37.1 74.2C56.9993 74.2 73.2821 58.4495 74.1633 38.7705C74.1817 38.6237 74.1817 38.4952 74.1817 38.3483C74.2 38.1097 74.2 37.871 74.2 37.6324C74.2 37.5773 74.2 37.5222 74.2 37.4672C74.2 37.357 74.2 37.2469 74.2 37.1367C74.2 36.9715 74.2 36.843 74.2 36.7145ZM73.2638 37.2285C73.2454 37.9444 73.1904 38.6604 73.1169 39.3763C72.2909 44.1492 68.1054 47.8023 63.0939 47.8023C57.4766 47.8023 52.924 43.2313 52.924 37.6324C52.924 32.0334 57.4949 27.4624 63.0939 27.4624C68.4726 27.4624 72.8966 31.6663 73.2454 36.9531C73.2638 37.0266 73.2638 37.1184 73.2638 37.2285ZM63.1122 26.5262C56.9993 26.5262 52.0244 31.501 52.0244 37.614C52.0244 43.727 56.9993 48.7018 63.1122 48.7018C66.5818 48.7018 69.6841 47.1047 71.7218 44.5898C69.0967 50.2071 63.3876 54.0988 56.779 54.0988C47.6921 54.0988 40.2942 46.7008 40.2942 37.614C40.2942 28.5272 47.6921 21.1292 56.779 21.1292C63.3692 21.1292 69.0783 25.0209 71.7218 30.6383C69.6841 28.1233 66.5818 26.5262 63.1122 26.5262ZM56.779 20.2113C47.1781 20.2113 39.3763 28.0132 39.3763 37.614C39.3763 47.2148 47.1781 55.0167 56.779 55.0167C62.1026 55.0167 66.8938 52.6119 70.088 48.8119C66.0678 55.6408 58.6147 60.2485 50.1337 60.2485C37.3754 60.2485 26.9852 49.8583 26.9852 37.1C26.9852 24.3417 37.3754 13.9515 50.1337 13.9515C59.8814 13.9515 68.2523 20.0094 71.6484 28.5639C68.5827 23.5524 63.0755 20.2113 56.779 20.2113ZM50.1337 13.0336C36.8614 13.0336 26.0673 23.8277 26.0673 37.1C26.0673 50.3723 36.8614 61.1664 50.1337 61.1664C57.3297 61.1664 63.7731 57.9906 68.1972 52.979C62.8185 60.9644 53.695 66.233 43.3598 66.233C26.8567 66.233 13.4375 52.8138 13.4375 36.3106C13.4375 19.8075 26.8567 6.38832 43.3598 6.38832C56.1548 6.38832 67.1141 14.4655 71.373 25.7919C67.316 18.2104 59.3123 13.0336 50.1337 13.0336ZM37.1 73.2822C17.1457 73.2822 0.917863 57.0543 0.917863 37.1C0.917863 17.1457 17.1457 0.917863 37.1 0.917863C48.9588 0.917863 59.4959 6.64532 66.0861 15.4752C60.4504 9.32548 52.3365 5.47046 43.3598 5.47046C26.3427 5.47046 12.5196 19.3118 12.5196 36.3106C12.5196 53.3095 26.361 67.1508 43.3598 67.1508C55.1268 67.1508 65.3702 60.5239 70.5653 50.8312C65.1499 63.9934 52.1897 73.2822 37.1 73.2822Z" fill="black"/>
</g>
<defs>
<clipPath id="clip0_79_336">
<rect width="75" height="75" fill="white"/>
</clipPath>
</defs>
</svg>
