<svg width="67" height="74" viewBox="0 0 67 74" fill="none" xmlns="http://www.w3.org/2000/svg">
<g clip-path="url(#clip0_79_350)">
<path d="M33.0403 0C14.8119 0 0 14.8327 0 33.0403V73.4761C0 73.7677 0.229157 73.9969 0.520811 73.9969H10.3746H19.7075H28.2488H37.8526H46.3939H55.7477H65.6014C65.8931 73.9969 66.1222 73.7677 66.1222 73.4761V33.0403C66.0806 14.8119 51.2687 0 33.0403 0ZM28.7488 72.9553V32.9778C28.7488 30.6237 30.6654 28.6863 33.0403 28.6863C35.3943 28.6863 37.3318 30.6029 37.3318 32.9778V72.9553H28.7488ZM38.3734 72.9553V32.9778C38.3734 30.0404 35.9777 27.6447 33.0403 27.6447C30.1029 27.6447 27.7072 30.0404 27.7072 32.9778V72.9553H20.2075V33.0819C20.2075 26.0197 25.9572 20.27 33.0194 20.27C40.0816 20.27 45.8314 26.0197 45.8314 33.0819V72.9553H38.3734ZM46.8939 72.9553V33.0819C46.8939 25.4364 40.6858 19.2284 33.0403 19.2284C25.3948 19.2284 19.1867 25.4364 19.1867 33.0819V72.9553H10.8745V33.3111C10.8745 21.0824 20.8116 11.1454 33.0403 11.1454C45.2689 11.1454 55.206 21.0824 55.206 33.3111V72.9553H46.8939ZM65.0389 72.9553H56.2268V33.3111C56.2268 20.52 45.8106 10.1037 33.0194 10.1037C20.2283 10.1037 9.81209 20.52 9.81209 33.3111V72.9553H1.04162V33.0403C1.04162 15.3952 15.3952 1.04162 33.0403 1.04162C50.6854 1.04162 65.0389 15.3952 65.0389 33.0403V72.9553Z" fill="black"/>
</g>
<defs>
<clipPath id="clip0_79_350">
<rect width="67" height="74" fill="white"/>
</clipPath>
</defs>
</svg>
