<svg width="74" height="74" viewBox="0 0 74 74" fill="none" xmlns="http://www.w3.org/2000/svg">
<g clip-path="url(#clip0_79_322)">
<path d="M73.4782 0H36.9992H0.520236C0.228904 0 0 0.228904 0 0.520236V36.9992V73.4782C0 73.7695 0.228904 73.9984 0.520236 73.9984H73.4782C73.7695 73.9984 73.9984 73.7695 73.9984 73.4782V0.520236C73.9984 0.228904 73.7695 0 73.4782 0ZM72.9579 35.7923C68.1093 31.339 61.8457 28.9043 55.2491 28.9043C55.1867 28.9043 55.1242 28.9043 55.0618 28.9043C49.9011 28.946 44.9692 30.465 40.7449 33.2535C43.6166 28.946 45.1357 23.8684 45.0941 18.5828C45.0525 12.0279 42.6178 5.84746 38.2062 1.04047H72.9371V35.7923H72.9579ZM72.729 36.9992C68.0053 41.5565 61.8041 44.0744 55.2283 44.0744C55.1659 44.0744 55.1034 44.0744 55.041 44.0744C48.5276 44.0328 42.3889 41.5149 37.7067 36.9992C42.3889 32.4836 48.5068 29.9864 55.041 29.924C55.1034 29.924 55.1659 29.924 55.2283 29.924C61.8041 29.924 68.0053 32.4419 72.729 36.9992ZM36.9992 36.2501C32.4003 31.4847 29.8824 25.2211 29.924 18.5828C29.9656 12.0695 32.4836 5.93069 36.9992 1.24857C41.5149 5.93069 44.012 12.0487 44.0744 18.5828C44.116 25.2211 41.5981 31.4847 36.9992 36.2501ZM35.7715 1.04047C31.3807 5.84746 28.946 12.0279 28.8835 18.5828C28.8419 23.8684 30.3818 28.946 33.2535 33.2535C28.946 30.3818 23.8684 28.8627 18.5828 28.8835C12.0279 28.9251 5.84746 31.3598 1.04047 35.7715V1.04047H35.7715ZM36.2501 36.9992C31.5263 41.5565 25.3251 44.0744 18.7493 44.0744C18.6869 44.0744 18.6245 44.0744 18.562 44.0744C12.0487 44.0328 5.90989 41.5149 1.22776 36.9992C5.90989 32.4836 12.0279 29.9864 18.562 29.924C25.2211 29.8824 31.4847 32.4003 36.2501 36.9992ZM1.04047 38.227C5.84746 42.6386 12.0279 45.0733 18.5828 45.1149C18.6453 45.1149 18.7077 45.1149 18.7701 45.1149C23.9933 45.1149 28.9876 43.5958 33.2535 40.7657C30.465 44.9692 28.9251 49.9011 28.9043 55.0826C28.8627 61.7625 31.2974 68.0885 35.7923 72.9788H1.04047V38.227ZM36.9992 37.7484C41.5149 42.4305 44.012 48.5485 44.0744 55.0826C44.116 61.7208 41.6189 67.9845 36.9992 72.7498C32.4003 67.9845 29.8824 61.7208 29.924 55.0826C29.9864 48.5485 32.4836 42.4097 36.9992 37.7484ZM38.2062 72.9579C42.701 68.0677 45.1357 61.7416 45.0941 55.0618C45.0525 49.9011 43.5334 44.9692 40.7449 40.7657C44.9484 43.5542 49.8803 45.0733 55.041 45.1149C55.1034 45.1149 55.1659 45.1149 55.2283 45.1149C61.8457 45.1149 68.0885 42.6802 72.9371 38.227V72.9788H38.2062V72.9579Z" fill="black"/>
</g>
<defs>
<clipPath id="clip0_79_322">
<rect width="74" height="74" fill="white"/>
</clipPath>
</defs>
</svg>
