<svg width="27" height="28" viewBox="0 0 27 28" fill="none" xmlns="http://www.w3.org/2000/svg">
<path d="M5.95124 0.760255L25.4744 0.760254C25.7731 0.760254 26.0596 0.878922 26.2708 1.09016C26.4821 1.30138 26.6007 1.58787 26.6007 1.8866V21.4098C26.6007 21.7085 26.4821 21.995 26.2708 22.2062C26.0596 22.4175 25.7731 22.5361 25.4744 22.5361C25.1757 22.5361 24.8892 22.4175 24.678 22.2062C24.4667 21.995 24.3481 21.7085 24.3481 21.4098V4.60482L2.24184 26.7111C2.02832 26.91 1.74592 27.0184 1.45412 27.0132C1.16233 27.0081 0.883917 26.8899 0.677552 26.6835C0.471188 26.4771 0.35298 26.1987 0.347832 25.9069C0.342683 25.6151 0.450996 25.3327 0.649952 25.1192L22.7562 3.01293H5.95124C5.65252 3.01293 5.36603 2.89427 5.1548 2.68304C4.94357 2.47181 4.8249 2.18532 4.8249 1.8866C4.8249 1.58787 4.94357 1.30138 5.1548 1.09016C5.36603 0.878923 5.65252 0.760255 5.95124 0.760255Z" fill="black"/>
</svg>
