<svg width="34" height="34" viewBox="0 0 34 34" fill="none" xmlns="http://www.w3.org/2000/svg">
<g clip-path="url(#clip0_151_17)">
<path d="M34 12.0417V21.9583C34 25.4731 31.1397 28.3333 27.625 28.3333H17.7083V32.5833H22.6667C23.0577 32.5833 23.375 32.9007 23.375 33.2917C23.375 33.6827 23.0577 34 22.6667 34H11.3333C10.9423 34 10.625 33.6827 10.625 33.2917C10.625 32.9007 10.9423 32.5833 11.3333 32.5833H16.2917V28.3333H6.375C2.86025 28.3333 0 25.4731 0 21.9583V9.20833C0 5.69358 2.86025 2.83333 6.375 2.83333H20.5417C20.9327 2.83333 21.25 3.15067 21.25 3.54167C21.25 3.93267 20.9327 4.25 20.5417 4.25H6.375C3.64083 4.25 1.41667 6.47417 1.41667 9.20833V21.9583C1.41667 24.6925 3.64083 26.9167 6.375 26.9167H27.625C30.3592 26.9167 32.5833 24.6925 32.5833 21.9583V12.0417C32.5833 11.6507 32.9007 11.3333 33.2917 11.3333C33.6827 11.3333 34 11.6507 34 12.0417ZM15.9262 14.2078C27.0512 1.26225 27.0994 1.21125 27.1235 1.18717C28.7087 -0.393834 31.2842 -0.393834 32.8638 1.19C34.442 2.77242 34.442 5.34933 32.8638 6.93033L21.2174 19.4338C21.1494 20.5615 20.7244 21.6226 19.9467 22.4726C19.0102 23.4968 17.6757 24.0847 16.2888 24.0847H10.6222C9.93508 24.0847 9.3075 23.7674 8.90233 23.2177C8.49575 22.6652 8.37958 21.9725 8.58358 21.3152C9.29192 19.0343 11.4722 14.9841 15.1456 14.2743C15.4034 14.2248 15.6641 14.2191 15.9233 14.2092L15.9262 14.2078ZM17.612 14.4202C18.2084 14.5987 18.7822 14.8608 19.2922 15.2433C20.111 15.861 20.689 16.6756 20.995 17.5922L23.9204 14.4528C23.4557 12.7755 21.981 11.526 20.2427 11.3588C19.3148 12.4397 18.4138 13.4867 17.612 14.4202ZM19.8177 18.7977C19.7327 17.8429 19.244 16.983 18.4379 16.3752C17.5695 15.7193 16.4673 15.4587 15.4162 15.6641C12.3987 16.2463 10.5527 19.7526 9.93792 21.7331C9.8685 21.9555 9.90817 22.1892 10.0442 22.3748C10.1802 22.559 10.3927 22.6652 10.6236 22.6652H16.2902C17.2819 22.6652 18.2339 22.2459 18.904 21.5149C19.5826 20.774 19.907 19.8078 19.8177 18.7977ZM21.3052 10.1221C22.9429 10.5697 24.3086 11.7413 25.0027 13.2912L31.8438 5.94717C32.8879 4.89883 32.8879 3.2215 31.8608 2.19017C30.8309 1.16025 29.155 1.15883 28.1251 2.19017C28.0273 2.30208 24.6627 6.21492 21.3052 10.1221Z" fill="black"/>
</g>
<defs>
<clipPath id="clip0_151_17">
<rect width="34" height="34" fill="white"/>
</clipPath>
</defs>
</svg>
