<svg width="34" height="34" viewBox="0 0 34 34" fill="none" xmlns="http://www.w3.org/2000/svg">
<g clip-path="url(#clip0_151_10)">
<path d="M14.875 8.50001C14.875 6.93743 13.6043 5.66668 12.0417 5.66668C10.4791 5.66668 9.20833 6.93743 9.20833 8.50001C9.20833 10.0626 10.4791 11.3333 12.0417 11.3333C13.6043 11.3333 14.875 10.0626 14.875 8.50001ZM12.0417 9.91668C11.2597 9.91668 10.625 9.28201 10.625 8.50001C10.625 7.71801 11.2597 7.08335 12.0417 7.08335C12.8237 7.08335 13.4583 7.71801 13.4583 8.50001C13.4583 9.28201 12.8237 9.91668 12.0417 9.91668ZM5.46833 9.89826L5.79842 9.70276C5.70917 9.27918 5.66525 8.88818 5.66525 8.4986C5.66525 8.10901 5.70775 7.71801 5.79983 7.29301L5.46833 7.09751C4.97958 6.81135 4.63108 6.35093 4.48942 5.80126C4.34633 5.25018 4.42708 4.67926 4.71467 4.1891C5.00083 3.70035 5.46125 3.35185 6.01092 3.21018C6.562 3.06426 7.13292 3.14643 7.6245 3.43543L7.94042 3.62101C8.517 3.13935 9.1885 2.76251 9.91808 2.50751V2.1236C9.91808 0.952013 10.8715 -0.00140381 12.0431 -0.00140381C13.2147 -0.00140381 14.1681 0.952013 14.1681 2.1236V2.50751C14.8977 2.76251 15.5678 3.13935 16.1458 3.62101L16.4617 3.43543C16.9533 3.14643 17.5228 3.06426 18.0753 3.21018C18.6249 3.35326 19.0853 3.70176 19.3729 4.19051C19.6591 4.67926 19.7398 5.25018 19.5968 5.80126C19.4537 6.35093 19.1052 6.81135 18.6164 7.09893L18.2863 7.29301C18.377 7.71801 18.4209 8.10901 18.4209 8.4986C18.4209 8.88818 18.3784 9.27918 18.2878 9.70276L18.6164 9.89685C19.1066 10.1858 19.4551 10.6463 19.5968 11.1959C19.7398 11.747 19.6591 12.3179 19.3715 12.8081C19.0853 13.2968 18.6249 13.6453 18.0753 13.787C17.5228 13.9343 16.9533 13.8508 16.4617 13.5618L16.1458 13.3762C15.5692 13.8578 14.8977 14.2347 14.1681 14.4897V14.8736C14.1681 15.2646 13.8508 15.5819 13.4598 15.5819C13.0688 15.5819 12.7514 15.2646 12.7514 14.8736V13.9641C12.7514 13.6411 12.9696 13.3592 13.2827 13.2784C14.1596 13.0518 14.9444 12.6098 15.555 11.9992C15.7817 11.7711 16.1373 11.7272 16.4149 11.8901L17.1799 12.3406C17.3428 12.4355 17.5313 12.4624 17.7168 12.4157C17.901 12.3689 18.0526 12.2528 18.1489 12.0898C18.2453 11.9269 18.2722 11.7357 18.2254 11.5529C18.1787 11.3688 18.0625 11.2158 17.8982 11.118L17.1119 10.6576C16.8343 10.4933 16.7011 10.1618 16.7889 9.85293C16.9348 9.34151 17.0014 8.91085 17.0014 8.50001C17.0014 8.08918 16.9334 7.65851 16.7889 7.1471C16.7011 6.83685 16.8314 6.50676 17.1105 6.34385L17.8982 5.8806C18.0625 5.78426 18.1787 5.62985 18.2254 5.4471C18.2722 5.26435 18.2467 5.0731 18.1503 4.9116C18.054 4.74726 17.901 4.6311 17.7168 4.58435C17.5327 4.5376 17.3414 4.5631 17.1799 4.65943L16.4149 5.10993C16.1358 5.27285 15.7817 5.22893 15.555 5.00085C14.9444 4.38885 14.161 3.94826 13.2827 3.7216C12.9696 3.63943 12.7514 3.35751 12.7514 3.03593V2.12643C12.7514 1.73685 12.4327 1.4181 12.0431 1.4181C11.6535 1.4181 11.3348 1.73685 11.3348 2.12643V3.03593C11.3348 3.35893 11.1166 3.64085 10.8035 3.7216C9.92658 3.94826 9.14175 4.39026 8.53117 5.00085C8.3045 5.23035 7.95033 5.27426 7.67125 5.10993L6.90625 4.65943C6.74333 4.56451 6.5535 4.53618 6.36933 4.58435C6.18517 4.6311 6.03358 4.74726 5.93725 4.91018C5.84092 5.0731 5.814 5.26435 5.86075 5.4471C5.9075 5.62985 6.02367 5.78285 6.18658 5.87918L6.97567 6.34385C7.25333 6.50676 7.38508 6.83826 7.29725 7.1471C7.15133 7.65851 7.08475 8.08918 7.08475 8.50001C7.08475 8.91085 7.15275 9.34151 7.29725 9.85293C7.38508 10.1632 7.25333 10.4933 6.97425 10.6576L6.18658 11.1194C6.02367 11.2143 5.9075 11.3688 5.86075 11.5529C5.814 11.7357 5.8395 11.9269 5.93583 12.0884C6.03217 12.2528 6.18517 12.3689 6.36933 12.4157C6.55633 12.4638 6.74617 12.4369 6.90625 12.3406L7.67125 11.8901C7.9475 11.7258 8.30308 11.7697 8.53117 11.9992C9.14175 12.6112 9.92517 13.0518 10.8035 13.2784C11.1166 13.3606 11.3348 13.6425 11.3348 13.9641V14.8736C11.3348 15.2646 11.0174 15.5819 10.6264 15.5819C10.2354 15.5819 9.91808 15.2646 9.91808 14.8736V14.4897C9.1885 14.2347 8.51842 13.8578 7.94042 13.3762L7.6245 13.5618C7.13292 13.8508 6.562 13.9343 6.01092 13.787C5.46125 13.6439 5.00083 13.2954 4.71325 12.8067C4.42708 12.3179 4.34633 11.747 4.48942 11.1959C4.6325 10.6463 4.981 10.1858 5.46833 9.89826ZM32.8383 13.6765C32.1343 13.0376 31.2148 12.7089 30.2756 12.7543C29.3264 12.7982 28.4509 13.209 27.812 13.9117L22.525 19.7243C22.0802 18.1546 20.6338 17 18.9224 17H4.95833C2.22417 17 0 19.2242 0 21.9583V29.0417C0 31.7758 2.22417 34 4.95833 34H13.4088C17.2423 34 20.9043 32.3581 23.4572 29.495L33.099 18.6717C34.3896 17.2253 34.272 14.9827 32.8383 13.6765ZM32.0408 17.7282L22.3989 28.5515C20.1153 31.1143 16.8371 32.5833 13.4073 32.5833H4.95833C3.00475 32.5833 1.41667 30.9953 1.41667 29.0417V21.9583C1.41667 20.0048 3.00475 18.4167 4.95833 18.4167H18.9224C20.2045 18.4167 21.25 19.4608 21.25 20.7443C21.25 21.8946 20.3929 22.8848 19.2695 23.0449L10.5414 24.089C10.1533 24.1343 9.87558 24.4871 9.92233 24.8767C9.96767 25.2648 10.3218 25.5524 10.71 25.4958L19.4537 24.4503C20.9015 24.2434 22.0688 23.205 22.4938 21.8663L28.8632 14.8693C29.2471 14.4458 29.7741 14.1978 30.345 14.1723C30.9145 14.1454 31.4642 14.3423 31.8863 14.7277C32.7491 15.5153 32.8185 16.8626 32.0422 17.7324L32.0408 17.7282Z" fill="black"/>
</g>
<defs>
<clipPath id="clip0_151_10">
<rect width="34" height="34" fill="white"/>
</clipPath>
</defs>
</svg>
