<svg width="34" height="34" viewBox="0 0 34 34" fill="none" xmlns="http://www.w3.org/2000/svg">
<path d="M31.5292 12.7486H30.6126C30.2216 12.7486 29.9043 13.0659 29.9043 13.4569C29.9043 13.8479 30.2216 14.1653 30.6126 14.1653H31.5292C31.9202 14.1653 32.2375 13.8479 32.2375 13.4569C32.2375 13.0659 31.9202 12.7486 31.5292 12.7486Z" fill="black"/>
<path d="M28.8603 8.71532C29.0417 8.71532 29.223 8.6459 29.3618 8.50848L30.0107 7.85965C30.2869 7.5834 30.2869 7.13432 30.0107 6.85807C29.7344 6.58182 29.2853 6.58182 29.0091 6.85807L28.3603 7.5069C28.084 7.78315 28.084 8.23223 28.3603 8.50848C28.4991 8.64732 28.679 8.71532 28.8603 8.71532Z" fill="black"/>
<path d="M29.3618 18.4039C29.0856 18.1277 28.6365 18.1277 28.3603 18.4039C28.084 18.6802 28.084 19.1292 28.3603 19.4055L29.0091 20.0543C29.1479 20.1932 29.3293 20.2612 29.5106 20.2612C29.6919 20.2612 29.8733 20.1917 30.0121 20.0543C30.2883 19.7781 30.2883 19.329 30.0121 19.0527L29.3618 18.4039Z" fill="black"/>
<path d="M22.8651 1.40535C22.5987 1.38976 22.3423 1.52576 22.212 1.76943C22.1808 1.81618 18.8772 6.45293 14.1342 5.92735C9.96632 5.4726 6.99557 5.97268 5.24315 6.47135C3.3944 6.99693 2.04149 8.66293 1.87715 10.6137C1.80207 11.4934 1.76099 12.206 1.76099 13.4555C1.76099 14.705 1.80207 15.419 1.87715 16.2973C1.98907 17.6318 2.65774 18.8318 3.65932 19.6265C4.45407 23.2489 5.98549 27.4479 7.58774 30.3818C8.31874 31.7192 9.69999 32.5834 11.1082 32.5834H11.1124C11.9383 32.5834 12.6807 32.317 13.3196 31.7928C14.4104 30.8989 14.9275 29.3519 14.6385 27.8531C14.2447 25.8074 13.5377 23.4388 12.6339 21.1112C13.1156 21.0828 13.6157 21.0403 14.1342 20.9837C18.8757 20.4708 22.1794 25.0934 22.1907 25.1133C22.3126 25.3484 22.5562 25.4944 22.8183 25.4944C22.8297 25.4944 22.841 25.4944 22.8523 25.4944C23.1272 25.4802 23.3708 25.3088 23.4742 25.0523C23.5408 24.888 25.1006 20.9313 25.1006 13.4555C25.1006 5.97976 23.5394 2.02443 23.4742 1.85868C23.3708 1.60226 23.1385 1.41668 22.8622 1.40393L22.8651 1.40535ZM13.2487 28.1223C13.44 29.1182 13.1156 30.1297 12.4228 30.6978C12.0389 31.0137 11.6097 31.1667 11.1124 31.1681H11.1096C10.2114 31.1681 9.31749 30.5929 8.83299 29.7033C7.45457 27.1788 6.12857 23.6768 5.31399 20.4623C6.61307 20.825 8.5539 21.1806 11.1322 21.1636C12.0942 23.5606 12.845 26.0228 13.2502 28.1237L13.2487 28.1223ZM22.5421 23.3155C21.2515 21.9017 18.54 19.5259 14.8992 19.5259C14.6002 19.5259 14.2928 19.5429 13.9812 19.5769C10.04 20.0062 7.26615 19.5443 5.63132 19.0783C4.3464 18.7128 3.40432 17.5468 3.28957 16.1783C3.21732 15.3198 3.17907 14.6625 3.17907 13.4569C3.17907 12.2513 3.2159 11.594 3.28957 10.7341C3.40574 9.3656 4.3464 8.19968 5.63132 7.83418C7.26474 7.36951 10.04 6.90626 13.9812 7.33551C18.0697 7.78176 21.1155 5.15101 22.5392 3.58843C22.9912 5.24451 23.6882 8.58643 23.6882 13.4555C23.6882 18.3246 22.994 21.658 22.5421 23.3155Z" fill="black"/>
</svg>
