<svg width="34" height="34" viewBox="0 0 34 34" fill="none" xmlns="http://www.w3.org/2000/svg">
<g clip-path="url(#clip0_151_8)">
<path d="M21.9583 19.8333C21.5673 19.8333 21.25 20.1507 21.25 20.5417V24.0833H1.41667V6.375C1.41667 3.64083 3.64083 1.41667 6.375 1.41667H16.2917C19.0258 1.41667 21.25 3.64083 21.25 6.375C21.25 6.766 21.5673 7.08333 21.9583 7.08333C22.3493 7.08333 22.6667 6.766 22.6667 6.375C22.6667 2.86025 19.8064 0 16.2917 0H6.375C2.86025 0 0 2.86025 0 6.375V27.625C0 31.1397 2.86025 34 6.375 34H16.2917C19.8064 34 22.6667 31.1397 22.6667 27.625V20.5417C22.6667 20.1507 22.3493 19.8333 21.9583 19.8333ZM16.2917 32.5833H6.375C3.64083 32.5833 1.41667 30.3592 1.41667 27.625V25.5H21.25V27.625C21.25 30.3592 19.0258 32.5833 16.2917 32.5833ZM34 27.625C34 28.016 33.6827 28.3333 33.2917 28.3333C30.3677 28.3333 27.8899 26.5724 26.8274 23.7377L24.3015 17H17.8613C16.0579 17 14.4911 15.7307 14.2162 14.0491C14.0477 13.0092 14.3367 11.9581 15.0124 11.1647C15.6882 10.3714 16.6699 9.91667 17.7112 9.91667H28.2285L28.3234 9.72117C28.3234 9.72117 26.4152 7.31992 26.4123 7.31567C25.1317 5.88767 25.2167 3.68617 26.6248 2.37292C28.0514 1.03983 30.2912 1.10642 31.6172 2.52308L33.8102 4.84642C33.9334 4.97675 34.0014 5.14958 34.0014 5.3295C34.0014 5.96417 33.2265 6.27442 32.7887 5.814L30.5915 3.50058C29.7953 2.652 28.4467 2.6095 27.591 3.40992C26.7382 4.20467 26.6914 5.54767 27.4876 6.40617C27.4932 6.41183 29.4312 8.84142 29.4312 8.84142C29.8024 9.3075 29.8718 9.93083 29.6126 10.4663C29.3533 11.0032 28.8235 11.3362 28.2271 11.3362H17.7098C17.0864 11.3362 16.4957 11.6096 16.0905 12.0856C15.6797 12.5687 15.5111 13.1849 15.6145 13.8238C15.7774 14.8283 16.7436 15.5862 17.8613 15.5862H24.7931C25.0877 15.5862 25.3527 15.7689 25.4561 16.0452L28.1548 23.2418C29.0048 25.5099 30.974 26.9195 33.2931 26.9195C33.6841 26.9195 34.0014 27.2368 34.0014 27.6278L34 27.625ZM13.4583 29.75H9.20833C8.81733 29.75 8.5 29.4327 8.5 29.0417C8.5 28.6507 8.81733 28.3333 9.20833 28.3333H13.4583C13.8493 28.3333 14.1667 28.6507 14.1667 29.0417C14.1667 29.4327 13.8493 29.75 13.4583 29.75Z" fill="black"/>
</g>
<defs>
<clipPath id="clip0_151_8">
<rect width="34" height="34" fill="white"/>
</clipPath>
</defs>
</svg>
