<svg width="34" height="34" viewBox="0 0 34 34" fill="none" xmlns="http://www.w3.org/2000/svg">
<path d="M10.3969 20.8236C10.0923 21.1296 9.91525 21.5603 9.91667 22.0164C9.91667 22.4712 10.098 22.9004 10.4224 23.222L13.9329 26.3911C14.2233 26.6546 14.246 27.1009 13.9839 27.3913C13.7218 27.6831 13.2727 27.7029 12.9837 27.4423L9.45058 24.2505C8.8315 23.6399 8.50283 22.8565 8.5 22.0207C8.49717 21.1849 8.82158 20.3972 9.41375 19.8064L12.9767 16.4829C13.2614 16.2166 13.7119 16.2322 13.9768 16.5169C14.2432 16.8031 14.229 17.2522 13.9428 17.5171L10.3969 20.8236ZM34 7.79169V26.2084C34 29.7231 31.1397 32.5834 27.625 32.5834H6.375C2.86025 32.5834 0 29.7231 0 26.2084V7.79169C0 4.27694 2.86025 1.41669 6.375 1.41669H27.625C31.1397 1.41669 34 4.27694 34 7.79169ZM1.41667 7.79169V11.3334H32.5833V7.79169C32.5833 5.05752 30.3592 2.83335 27.625 2.83335H6.375C3.64083 2.83335 1.41667 5.05752 1.41667 7.79169ZM32.5833 26.2084V12.75H1.41667V26.2084C1.41667 28.9425 3.64083 31.1667 6.375 31.1667H27.625C30.3592 31.1667 32.5833 28.9425 32.5833 26.2084ZM5.66667 8.50002C6.44867 8.50002 7.08333 7.86535 7.08333 7.08335C7.08333 6.30135 6.44867 5.66669 5.66667 5.66669C4.88467 5.66669 4.25 6.30135 4.25 7.08335C4.25 7.86535 4.88467 8.50002 5.66667 8.50002ZM9.91667 8.50002C10.6987 8.50002 11.3333 7.86535 11.3333 7.08335C11.3333 6.30135 10.6987 5.66669 9.91667 5.66669C9.13467 5.66669 8.5 6.30135 8.5 7.08335C8.5 7.86535 9.13467 8.50002 9.91667 8.50002ZM14.1667 8.50002C14.9487 8.50002 15.5833 7.86535 15.5833 7.08335C15.5833 6.30135 14.9487 5.66669 14.1667 5.66669C13.3847 5.66669 12.75 6.30135 12.75 7.08335C12.75 7.86535 13.3847 8.50002 14.1667 8.50002ZM21.0247 16.4829C20.7414 16.2166 20.2895 16.2322 20.0246 16.5169C19.7582 16.8031 19.7724 17.2522 20.0586 17.5171L23.5847 20.8066C23.9077 21.1296 24.0847 21.5589 24.0833 22.0164C24.0833 22.4712 23.902 22.9004 23.6002 23.1994L20.0671 26.3911C19.7767 26.6546 19.754 27.1009 20.0161 27.3913C20.2782 27.6831 20.7258 27.7029 21.0162 27.4423L24.5735 24.2279C25.1685 23.6399 25.4972 22.8551 25.5 22.0193C25.5028 21.1834 25.1784 20.3958 24.5692 19.788L21.0247 16.4815V16.4829Z" fill="black"/>
</svg>
